<svg viewBox="0 0 400 400" fill="none" xmlns="http://www.w3.org/2000/svg" id="Github--Streamline-Unicons" height="400" width="400">
  <desc>
    Github Streamline Icon: https://streamlinehq.com
  </desc>
  <path d="M199.99833333333336 8.836666666666668c-46.540000000000006 0.0016666666666666668 -91.56166666666667 16.565 -127.00666666666667 46.723333333333336C37.545 85.71833333333333 13.986666666666666 127.50666666666667 6.531666666666667 173.4466666666667c-7.455 45.93833333333334 1.6800000000000002 93.03166666666668 25.770000000000003 132.85333333333332 24.088333333333335 39.818333333333335 61.561666666666675 69.76833333333333 105.71333333333335 84.48833333333334 9.8 1.7150000000000003 13.475000000000001 -4.165 13.475000000000001 -9.31 0 -4.655 -0.24500000000000002 -20.090000000000003 -0.24500000000000002 -36.505 -49.245000000000005 9.065000000000001 -61.98500000000001 -12.003333333333334 -65.905 -23.028333333333332 -4.3500000000000005 -10.721666666666668 -11.245000000000001 -20.223333333333336 -20.090000000000003 -27.685000000000002 -6.860000000000001 -3.6750000000000003 -16.66 -12.74 -0.24500000000000002 -12.985000000000001 6.2683333333333335 0.68 12.278333333333334 2.861666666666667 17.525000000000002 6.358333333333334 5.245 3.4966666666666666 9.571666666666667 8.208333333333334 12.610000000000001 13.731666666666667 2.68 4.815 6.285 9.055000000000001 10.606666666666667 12.475000000000001 4.321666666666666 3.42 9.276666666666667 5.955000000000001 14.580000000000002 7.455 5.303333333333334 1.5016666666666667 10.850000000000001 1.9433333333333334 16.323333333333334 1.2983333333333333s10.766666666666667 -2.3633333333333337 15.573333333333334 -5.058333333333334c0.8483333333333334 -9.965 5.290000000000001 -19.28166666666667 12.496666666666668 -26.215 -43.61000000000001 -4.9 -89.17999999999999 -21.805000000000003 -89.17999999999999 -96.775 -0.275 -19.478333333333335 6.911666666666667 -38.325 20.090000000000003 -52.67333333333334 -5.991666666666667 -16.930000000000003 -5.291666666666667 -35.51 1.9600000000000002 -51.940000000000005 0 0 16.413333333333334 -5.145 53.900000000000006 20.090000000000003 32.07 -8.82 65.92666666666668 -8.82 97.99833333333335 0 37.485 -25.48 53.900000000000006 -20.090000000000003 53.900000000000006 -20.090000000000003 7.251666666666667 16.43 7.953333333333334 35.010000000000005 1.9600000000000002 51.940000000000005 13.215000000000002 14.323333333333336 20.411666666666665 33.18833333333334 20.090000000000003 52.67333333333334 0 75.215 -45.815000000000005 91.87500000000001 -89.42500000000001 96.775 4.676666666666668 4.74 8.278333333333334 10.433333333333334 10.561666666666667 16.688333333333336 2.2833333333333337 6.258333333333334 3.1933333333333334 12.933333333333335 2.6683333333333334 19.571666666666665 0 26.21666666666667 -0.24500000000000002 47.28333333333334 -0.24500000000000002 53.89833333333334 0 5.145 3.6750000000000003 11.270000000000001 13.475000000000001 9.31 44.07333333333334 -14.838333333333335 81.43833333333335 -44.858333333333334 105.42500000000001 -84.69833333333334 23.988333333333337 -39.84166666666667 33.035000000000004 -86.91166666666666 25.528333333333336 -132.80666666666667 -7.506666666666668 -45.89333333333334 -31.078333333333337 -87.62666666666668 -66.51 -117.74833333333333C291.4866666666667 25.41166666666667 246.50333333333336 8.861666666666666 199.99833333333336 8.836666666666668Z" fill="#ffffff" stroke-width="16.6667"></path>
</svg>