<svg viewBox="0 0 400 400" fill="none" xmlns="http://www.w3.org/2000/svg" id="Twitter--Streamline-Unicons" height="400" width="400">
  <desc>
    Twitter Streamline Icon: https://streamlinehq.com
  </desc>
  <path d="M396.00000000000006 78.67500000000001c-14.733333333333334 6.3916666666666675 -30.313333333333336 10.616666666666667 -46.25666666666667 12.545000000000002 16.82166666666667 -10.048333333333334 29.42666666666667 -25.856666666666666 35.47666666666667 -44.49333333333334 -15.805000000000001 9.41 -33.108333333333334 16.040000000000003 -51.156666666666666 19.6 -12.063333333333334 -13.081666666666669 -28.125000000000004 -21.788333333333334 -45.67166666666667 -24.756666666666668 -17.543333333333333 -2.9683333333333337 -35.58 -0.030000000000000002 -51.27333333333334 8.355 -15.695 8.386666666666667 -28.163333333333334 21.743333333333336 -35.44833333333334 37.97833333333334 -7.285 16.235 -8.975 34.428333333333335 -4.806666666666667 51.72833333333334 -31.96 -1.616666666666667 -63.220000000000006 -9.938333333333334 -91.75333333333334 -24.425 -28.533333333333335 -14.485000000000001 -53.7 -34.81166666666667 -73.86666666666667 -59.660000000000004 -7.071666666666667 12.351666666666667 -10.788333333333334 26.340000000000003 -10.780000000000001 40.57333333333334 -0.025 13.216666666666669 3.22 26.236666666666668 9.443333333333333 37.89666666666667 6.223333333333334 11.661666666666667 15.233333333333334 21.603333333333335 26.230000000000004 28.94 -12.780000000000001 -0.35000000000000003 -25.28666666666667 -3.7783333333333338 -36.45666666666666 -9.996666666666668v0.9800000000000001c0.09666666666666666 18.52 6.585000000000001 36.43833333333334 18.37166666666667 50.723333333333336 11.785 14.286666666666667 28.145000000000003 24.063333333333336 46.30833333333334 27.67666666666667 -6.991666666666667 2.1266666666666665 -14.251666666666667 3.2500000000000004 -21.560000000000002 3.331666666666667 -5.058333333333334 -0.05833333333333334 -10.105 -0.5183333333333333 -15.091666666666667 -1.3716666666666668 5.171666666666668 15.931666666666667 15.181666666666668 29.853333333333335 28.636666666666667 39.830000000000005 13.455000000000002 9.975000000000001 29.685000000000002 15.510000000000002 46.431666666666665 15.833333333333334 -28.280000000000005 22.25 -63.193333333333335 34.395 -99.17666666666666 34.49666666666667 -6.551666666666668 0.021666666666666667 -13.098333333333334 -0.3716666666666667 -19.6 -1.1766666666666667 36.73833333333334 23.720000000000002 79.55333333333334 36.31333333333333 123.28333333333335 36.260000000000005 30.178333333333335 0.315 60.116666666666674 -5.390000000000001 88.06500000000001 -16.776666666666667 27.950000000000003 -11.386666666666668 53.35 -28.228333333333335 74.71833333333335 -49.54 21.366666666666667 -21.311666666666667 38.27333333333334 -46.66833333333334 49.731666666666676 -74.58833333333334 11.458333333333334 -27.92166666666667 17.236666666666668 -57.845 17.00166666666667 -88.02333333333334v-10.388333333333334c15.38 -11.468333333333335 28.645 -25.53 39.2 -41.55166666666667Z" fill="#ffffff" stroke-width="16.6667"></path>
</svg>